<svg xmlns="http://www.w3.org/2000/svg" viewBox="0 0 92.22 86.01"><defs><style>.cls-1{fill:#e75f0d;}.cls-2{fill:#191833;}.cls-3{font-size:14.19px;fill:#241c32;font-family:Pattaya-Regular, Pattaya;}</style></defs><g id="katman_2" data-name="katman 2"><g id="katman_1-2" data-name="katman 1"><path class="cls-1" d="M54,2.2a7.3,7.3,0,0,1-4,6.24c-2.31,1.37-4.87,2.23-7.18,3.61a14.29,14.29,0,0,0-5.49,5.09c-1.61,2.87-.85,5.13,1.54,7,1.88,1.47,4,2.5,6,3.87a28.82,28.82,0,0,1,4.69,3.63c2.32,2.49,2.45,4.87,1.27,7.72A5.86,5.86,0,0,1,49.9,41a1.81,1.81,0,0,1-1.1.15c-2.86-.07-5.71.13-8.57.19-3.35.09-6.7.27-10,.67-2.36.28-4.73.54-7.08.9-1.31.2-1.74-.19-1.92-1.53a36.09,36.09,0,0,0-1.71-6.69A63.48,63.48,0,0,1,17.07,25c-.26-1.57-.39-3.18-.5-4.78a26.79,26.79,0,0,1,0-6.07,13.77,13.77,0,0,1,3.27-7A14.48,14.48,0,0,1,31,1.91a14.23,14.23,0,0,1,2.61.33,63.24,63.24,0,0,0,12.45.53,60.46,60.46,0,0,0,7.1-.67C53.45,2.07,53.74,1.93,54,2.2Z"/><path class="cls-1" d="M74.5,65.46a5.34,5.34,0,0,1-.31-2.5,150.93,150.93,0,0,1,.09-15.34,55.18,55.18,0,0,1,2-11.35,8.68,8.68,0,0,1,3-4.7,3.14,3.14,0,0,1,3.62-.48,23.42,23.42,0,0,1,.65,11.34,75,75,0,0,1-2.2,10.39,43.87,43.87,0,0,1-4.48,10.7A3.93,3.93,0,0,1,74.5,65.46Z"/><path class="cls-1" d="M11.73,57.45A70.36,70.36,0,0,1,7.57,47.8a43.44,43.44,0,0,1-1.72-6.42,18.06,18.06,0,0,1-.36-6.71A6,6,0,0,1,8.34,30.4a9.15,9.15,0,0,1,3.47,3.67,23.58,23.58,0,0,1,2.42,7.16A22.75,22.75,0,0,1,14.69,48a22.89,22.89,0,0,1-2.6,8.88C12,57.08,11.85,57.26,11.73,57.45Z"/><path class="cls-1" d="M41.5,55.86c2.8-.13,5.6-.35,8.39-.41,4.11-.09,8.2-.45,12.31-.32a9.16,9.16,0,0,1,2.81.26c-1.6,0-3.21.15-4.81,0a17.74,17.74,0,0,0-6.18,1c-2.27.67-4.54,1.33-6.8,2-2.48.75-4.95,1.54-7.43,2.26S35,62,32.58,62.67c-1.73.47-3.47.91-5.22,1.29a33.45,33.45,0,0,1-4.07.65c-.73.07-1.39.38-2.11.49A23.23,23.23,0,0,1,21.59,61c.18-1.17,1.21-1.56,2.14-2,1.18-.52,2.38-1,3.57-1.5a31.84,31.84,0,0,1,5.6-1.24C35,56.08,40.67,55.9,41.5,55.86Z"/><path class="cls-1" d="M70,58.89c0,1.6.08,3.21.1,4.81,0,.91-.41,1.27-1.32,1.38-6.32.76-12.68.32-19,.49a78.19,78.19,0,0,0-8.92.65c-.84.12-1.69.13-2.54.19a12.05,12.05,0,0,1,4.91-3.1,43.14,43.14,0,0,1,7.29-2.38,61.93,61.93,0,0,1,6.37-1c3-.3,6-.6,9-.83A32.9,32.9,0,0,1,70,58.89Z"/><path class="cls-2" d="M54,2.2A79,79,0,0,1,36,2.78c-1.17-.1-2.32-.34-3.49-.49A13.67,13.67,0,0,0,21.39,5.86,13.41,13.41,0,0,0,17,13.23a24.54,24.54,0,0,0-.19,7.11,55.45,55.45,0,0,0,1,7.5,72.43,72.43,0,0,0,1.93,7.07,32,32,0,0,1,1.68,6.81c.09.94.5,1.24,1.57,1,1.72-.33,3.46-.52,5.2-.71,2.64-.28,5.28-.59,7.93-.72,4.58-.21,9.17-.36,13.76-.28a37.65,37.65,0,0,0,5.9.39c1.75.1,3.5.22,5.25.34a5.89,5.89,0,0,1,.68.1.84.84,0,0,1-.72.27c-6,.44-12,.94-18,1.56a121.18,121.18,0,0,0-18.53,3.15c-1.86.49-2.29,1-2.33,2.94s-.1,4-.13,6c0,1.25.18,1.44,1.44,1.34l.9-.09c1-.14,2.1,0,3.14-.1a.28.28,0,0,1,.36.19.39.39,0,0,1-.22.37,6.88,6.88,0,0,1-1.61.79c-.89.33-1.76.72-2.63,1.1a2.74,2.74,0,0,0-1.82,2.74,9.3,9.3,0,0,1-.44,2.95,14,14,0,0,0-.51,2,1.41,1.41,0,0,1-.58.92.88.88,0,0,1-1.41-.43,3.87,3.87,0,0,1-.27-1.84c.17-3.22.35-6.45.38-9.69,0-6.09-.09-12.16-1.73-18.09a14.69,14.69,0,0,0-5.67-7.81c-1.08-.81-3.23.51-3.37.62-2.25,1.82-2.68,4.29-2.45,7,.58,6.52,2.88,12.5,5.7,18.32.21.43,1.48,3.83,2,5.08.19.48.34,1-.24,1.32s-.91-.08-1.26-.44c-3.26-3.34-5-7.51-6.37-11.84A42.31,42.31,0,0,1,3.21,36,17.08,17.08,0,0,1,4,30.81c1.36-3.88,4.06-5.14,7.92-3.7.73.27,1.45.61,2.24.95a56.9,56.9,0,0,1-.88-9.58,22.77,22.77,0,0,1,2.19-10c2.37-4.68,6.32-7.11,11.38-8a32.73,32.73,0,0,1,9.22,0A87.92,87.92,0,0,0,48.34.83c3.31-.09,6.6-.49,9.9-.75A26.25,26.25,0,0,1,68,1.17c.1,0,.26,0,.29.13-1.46,0-2.92,0-4.39,0A32.26,32.26,0,0,0,54,2.2Z"/><path class="cls-2" d="M60.35,82.16a7.16,7.16,0,0,1-2.75.22c-3.41-.09-6.82.06-10.23.21s-7.06.38-10.58.71c-3.79.36-7.57.8-11.33,1.4-1.36.22-2.72.46-4.07.67-1,.16-1.56-.24-1.55-1.11,0-.41.17-.66.62-.66,2.47,0,4.87-.6,7.31-.83,3.05-.28,6.09-.55,9.15-.69,6.57-.29,13.14-.24,19.71,0A25.2,25.2,0,0,1,60.35,82.16Z"/><path class="cls-2" d="M27.26,57.79s7.92-1.31,13.28-1.59-1.47-.73-1.47-.73L27.42,57S26.23,57.78,27.26,57.79Z"/><path class="cls-2" d="M74.5,65.46c0,.2,0,.4,0,.59a1.16,1.16,0,0,1-1.16,1.31,48.31,48.31,0,0,1-5.11.27c-7.87.13-15.25-.3-22.87-.37a99.64,99.64,0,0,0-11.19.61c-.89.1-1.79.15-2.69.18a16.68,16.68,0,0,1,3.86-1,23.6,23.6,0,0,0,3-.61,2.63,2.63,0,0,1,1.15-.33c2.89-.2,5.77-.57,8.67-.69,4.86-.18,9.72,0,14.58-.11a48.15,48.15,0,0,0,6-.45c.84-.13,1.11-.42,1.13-1.3,0-1.26,0-2.51,0-3.76a1.67,1.67,0,0,1,.16-.88c.06-.72.15-1.43.18-2.15s-.26-1.07-1.21-1.13-2.14-.11-3.21-.17l-.74,0a63.09,63.09,0,0,0-8.91.07c-1.44.13-2.9.18-4.34.2-3.43,0-6.85.27-10.27.44A6.44,6.44,0,0,1,39.63,56c-.26-.07-.56-.12-.56-.49,2.73-.62,5.46-1.2,8.24-1.58a89.86,89.86,0,0,1,10.87-.79c3.46,0,6.91.14,10.37.38,1.56.11,1.85-.22,2-1.8a54.32,54.32,0,0,1,2.71-14.63,18,18,0,0,1,3.37-6.22,9.14,9.14,0,0,1,4.11-2.66,5.3,5.3,0,0,1,6.54,2.55A13.5,13.5,0,0,1,89,37.39a37.75,37.75,0,0,1-4.71,18.46c-.14.25-.24.57-.66.57A3,3,0,0,1,84,55,99.13,99.13,0,0,0,87.16,41.3a11.72,11.72,0,0,0-.23-6.16c-.76-1.93-2.35-4-4.06-4.05-.22,0-2.6,0-3.47.65a8.76,8.76,0,0,0-2.93,4.62,54.46,54.46,0,0,0-2,11.61,67.38,67.38,0,0,0-.24,8c.13,2.93-.08,5.87.27,8.79A1.89,1.89,0,0,1,74.5,65.46Z"/><text class="cls-3" transform="translate(0.19 80.62)">беленай мебель</text></g></g></svg>